# xmcd CD database file
#
# Track frame offsets:
#	150
#	12623
#	27187
#	40769
#	54364
#	69846
#	84712
#	98777
#	113249
#	127649
#
# Disc length: 2078 seconds
#
# Revision: 0
# Processed by: cddbd v1.5.2PL0 Copyright (c) Steve Scherf et al.
# Submitted via: CDex 1.70beta2
#
DISCID=73081c0a
DTITLE=Alison Harris - Smoke Rings In The Sky
DYEAR=2008
DGENRE=Country
TTITLE0=Mockingbird
TTITLE1=Western Wind
TTITLE2=Best Sleep Of My Life
TTITLE3=Angelina
TTITLE4=Forgotten
TTITLE5=Unspoken Waltz
TTITLE6=Train Hopper
TTITLE7=Clean As Snow
TTITLE8=Marilyn's Dress
TTITLE9=Mexico
EXTD=YEAR: 2008
EXTT0=
EXTT1=
EXTT2=
EXTT3=
EXTT4=
EXTT5=
EXTT6=
EXTT7=
EXTT8=
EXTT9=
PLAYORDER=
